<?xml version="1.0" encoding="UTF-8"?>
<svg id="Ebene_1" data-name="Ebene 1" xmlns="http://www.w3.org/2000/svg" viewBox="0 0 844.57 279.51">
  <defs>
    <style>
      .cls-1 {
        fill: #7aa22e;
      }

      .cls-1, .cls-2, .cls-3, .cls-4, .cls-5 {
        stroke-width: 0px;
      }

      .cls-2 {
        fill: #6f6f6e;
      }

      .cls-3 {
        fill: #b5c488;
      }

      .cls-4 {
        fill: #8dcab4;
      }

      .cls-5 {
        fill: #edae6b;
      }
    </style>
  </defs>
  <g>
    <path class="cls-1" d="M326.67,116.38c-36.43-12.66-74.52-19.07-113.46-19.07s-79.75,6.87-117.37,20.44v-34.4h-47.39v128.34c4.46-4.67,9-9.13,13.62-13.4,5.55-5.12,11.21-9.95,16.98-14.48,75.68-61.78,163.73-83.42,247.62-67.44Z"/>
    <g>
      <rect class="cls-3" x="388.2" y="166.9" width="16.67" height="16.67"/>
      <rect class="cls-3" x="386.9" y="150.39" width="9.63" height="9.63"/>
      <rect class="cls-3" x="404.87" y="189.13" width="9.63" height="9.63"/>
      <path class="cls-3" d="M357.11,154.53v-9.63h9.63v9.63h16.64v-71.17h-48.75v44.14c-66.57-12.33-135.68-2.27-199.54,31.33,24.91-9.53,50.91-14.45,77.44-14.45,42.87,0,84.34,12.85,122.1,37.22,4.73,3.05,9.4,6.29,14,9.7,4.6,3.4,9.12,7,13.59,10.76v-14.19h21.15v-16.67h-16.64v-16.67h-9.63ZM361.92,181.73h-16.67v-16.67h-16.67v-16.67h16.67v16.67h16.67v16.67Z"/>
      <rect class="cls-3" x="370.18" y="196.99" width="30.12" height="30.12"/>
      <rect class="cls-3" x="342.05" y="204.53" width="16.67" height="16.67"/>
    </g>
  </g>
  <g>
    <g>
      <path class="cls-2" d="M439.28,163.27h5.08v64.6h-5.08v-64.6Z"/>
      <path class="cls-2" d="M456.35,181.82h4.8v7.84c1.54-2.64,3.49-4.74,5.86-6.28,2.37-1.54,4.78-2.31,7.24-2.31h6.18c4,0,7.24,1.4,9.74,4.2,2.49,2.8,3.74,6.51,3.74,11.12v31.47h-4.89v-31.56c0-3.2-.8-5.8-2.4-7.8-1.6-2-3.69-3-6.27-3h-6c-2.77,0-5.38,1.14-7.84,3.42-2.46,2.28-4.18,5.23-5.17,8.86v30.08h-4.98v-46.05Z"/>
      <path class="cls-2" d="M508.12,186.25h-7.94v-4.43h7.94v-3.88c0-10.03,4.8-15.04,14.4-15.04h2.58v4.34h-2.58c-3.32,0-5.72.85-7.2,2.54-1.48,1.69-2.21,4.42-2.21,8.17v3.88h10.98v4.43h-10.98v41.62h-4.98v-41.62Z"/>
      <path class="cls-2" d="M531.55,181.82h4.8v7.47c1.35-2.34,3.29-4.2,5.81-5.58,2.52-1.38,5.23-2.08,8.12-2.08h3.41v4.43h-3.51c-4,0-7.28,1.29-9.83,3.88-2.55,2.58-3.83,5.94-3.83,10.06v27.87h-4.98v-46.05Z"/>
      <path class="cls-2" d="M560.07,225.24c-2.58-2.25-3.88-5.24-3.88-9v-3.51c0-3.75,1.32-6.74,3.97-8.95,2.64-2.21,6.15-3.32,10.52-3.32h6c2.09,0,4.26.34,6.51,1.02,2.24.68,4.17,1.6,5.77,2.77v-8.95c0-2.89-.89-5.26-2.68-7.11-1.79-1.85-4.09-2.77-6.92-2.77h-7.2c-2.89,0-5.23.68-7.01,2.03-1.79,1.35-2.68,3.17-2.68,5.44h-4.98c0-3.57,1.35-6.43,4.06-8.58,2.71-2.15,6.24-3.23,10.61-3.23h7.2c4.37,0,7.86,1.29,10.47,3.88,2.61,2.58,3.92,6.03,3.92,10.34v32.57h-4.71v-7.2c-1.6,2.46-3.57,4.4-5.91,5.81-2.34,1.41-4.71,2.12-7.11,2.12h-5.63c-4.31,0-7.75-1.12-10.33-3.37ZM576.13,224.18c2.58,0,5.06-.92,7.43-2.77,2.37-1.84,4.17-4.27,5.4-7.29v-4.98c-1.35-1.29-3.15-2.34-5.4-3.14-2.25-.8-4.54-1.2-6.88-1.2h-6c-2.89,0-5.2.72-6.92,2.17-1.72,1.45-2.58,3.37-2.58,5.77v3.51c0,2.4.83,4.32,2.49,5.77,1.66,1.45,3.91,2.17,6.74,2.17h5.72Z"/>
      <path class="cls-2" d="M609.44,167.7h-20.49v-4.43h46.05v4.43h-20.49v60.17h-5.08v-60.17Z"/>
      <path class="cls-2" d="M687.88,181.82l-10.15,41.53c-.43,1.6-1.01,2.75-1.75,3.46-.74.71-1.72,1.06-2.95,1.06h-2.31l-12.09-37.1-12.46,37.1h-2.31c-1.23,0-2.21-.35-2.95-1.06-.74-.71-1.32-1.86-1.75-3.46l-10.24-41.53h5.26l9.41,40.51,13.01-39.22h1.94c1.29,0,2.21.83,2.77,2.49l12,36.82,9.32-40.6h5.26Z"/>
      <path class="cls-2" d="M695.67,172.87c-.77-.74-1.15-1.72-1.15-2.95s.38-2.23,1.15-3c.77-.77,1.77-1.15,3-1.15s2.21.38,2.95,1.15c.74.77,1.11,1.77,1.11,3s-.37,2.14-1.11,2.91c-.74.77-1.72,1.15-2.95,1.15s-2.23-.37-3-1.11ZM696.18,181.82h4.89v46.05h-4.89v-46.05Z"/>
      <path class="cls-2" d="M713.43,181.82h4.8v7.84c1.54-2.64,3.49-4.74,5.86-6.28,2.37-1.54,4.78-2.31,7.24-2.31h6.18c4,0,7.24,1.4,9.74,4.2,2.49,2.8,3.74,6.51,3.74,11.12v31.47h-4.89v-31.56c0-3.2-.8-5.8-2.4-7.8-1.6-2-3.69-3-6.27-3h-6c-2.77,0-5.38,1.14-7.84,3.42-2.46,2.28-4.18,5.23-5.17,8.86v30.08h-4.98v-46.05Z"/>
      <path class="cls-2" d="M762.76,224.78c-2.68-2.55-4.01-5.92-4.01-10.1h4.8c0,2.83.91,5.14,2.72,6.92,1.81,1.79,4.17,2.68,7.06,2.68h7.94c3.01,0,5.43-.61,7.24-1.85,1.81-1.23,2.72-2.83,2.72-4.8v-3.6c0-1.35-.51-2.55-1.52-3.6-1.01-1.05-2.32-1.72-3.92-2.03l-16.06-2.77c-3.01-.49-5.43-1.65-7.24-3.46-1.82-1.81-2.72-3.95-2.72-6.41v-3.14c0-3.44,1.28-6.23,3.83-8.35,2.55-2.12,5.92-3.18,10.1-3.18h7.84c4.06,0,7.34,1.17,9.83,3.51,2.49,2.34,3.74,5.41,3.74,9.23h-4.8c-.12-2.52-.97-4.55-2.54-6.09-1.57-1.54-3.65-2.31-6.23-2.31h-7.84c-2.71,0-4.89.66-6.55,1.98-1.66,1.32-2.49,3.06-2.49,5.21v2.95c0,1.42.55,2.66,1.66,3.74,1.11,1.08,2.55,1.74,4.34,1.98l16.06,2.77c2.83.49,5.11,1.63,6.83,3.41,1.72,1.79,2.58,3.91,2.58,6.37v3.88c0,3.26-1.35,5.89-4.06,7.89-2.71,2-6.31,3-10.8,3h-7.94c-4.37,0-7.89-1.28-10.57-3.83Z"/>
    </g>
    <g>
      <path class="cls-1" d="M446.57,146.6c-3.48-2-6.17-4.83-8.07-8.49-1.91-3.66-2.86-7.89-2.86-12.69v-17.72c0-4.8.97-9.03,2.91-12.69,1.94-3.66,4.67-6.49,8.21-8.49,3.54-2,7.61-3,12.23-3h10.15c4.43,0,8.34.91,11.72,2.72,3.38,1.82,6,4.37,7.84,7.66,1.85,3.29,2.77,7.09,2.77,11.4h-10.61c0-3.69-1.08-6.66-3.23-8.91-2.15-2.24-4.98-3.37-8.49-3.37h-10.15c-3.75,0-6.78,1.37-9.09,4.11-2.31,2.74-3.46,6.38-3.46,10.94v16.98c0,4.55,1.12,8.2,3.37,10.94,2.24,2.74,5.21,4.11,8.9,4.11h10.52c3.57,0,6.49-1.26,8.77-3.78,2.28-2.52,3.41-5.75,3.41-9.69v-3.14h-17.9v-9.41h28.51v12.55c0,4.49-.95,8.48-2.86,11.95-1.91,3.48-4.58,6.18-8.03,8.12s-7.41,2.91-11.9,2.91h-10.52c-4.61,0-8.66-1-12.13-3Z"/>
      <path class="cls-1" d="M501.98,102.81h9.87v6.27c1.23-1.91,3-3.46,5.31-4.66,2.31-1.2,4.69-1.8,7.15-1.8h5.54v9.23h-5.54c-3.51,0-6.34,1.08-8.49,3.23s-3.23,4.95-3.23,8.4v25.38h-10.61v-46.05Z"/>
      <path class="cls-1" d="M542.17,147.47c-2.86-1.41-5.08-3.41-6.64-6-1.57-2.58-2.35-5.57-2.35-8.95v-12.37c0-3.57.78-6.72,2.35-9.46,1.57-2.74,3.78-4.86,6.64-6.37,2.86-1.51,6.17-2.26,9.92-2.26h7.38c5.6,0,10.09,1.63,13.47,4.89,3.38,3.26,5.08,7.6,5.08,13.01v9.23h-34.24v3.32c0,2.46.75,4.43,2.26,5.91,1.51,1.48,3.52,2.21,6.04,2.21h7.11c2.46,0,4.44-.6,5.95-1.8,1.51-1.2,2.26-2.78,2.26-4.75h10.43c0,4.68-1.72,8.43-5.17,11.26-3.45,2.83-7.97,4.25-13.56,4.25h-7.01c-3.75,0-7.06-.71-9.92-2.12ZM567.59,121.27v-1.29c0-2.71-.74-4.89-2.21-6.55-1.48-1.66-3.41-2.49-5.81-2.49h-7.47c-2.52,0-4.57.88-6.14,2.63-1.57,1.75-2.35,4.05-2.35,6.88v.83h23.99Z"/>
      <path class="cls-1" d="M594.68,147.47c-2.86-1.41-5.08-3.41-6.64-6-1.57-2.58-2.35-5.57-2.35-8.95v-12.37c0-3.57.78-6.72,2.35-9.46,1.57-2.74,3.78-4.86,6.64-6.37,2.86-1.51,6.17-2.26,9.92-2.26h7.38c5.6,0,10.09,1.63,13.47,4.89,3.38,3.26,5.08,7.6,5.08,13.01v9.23h-34.24v3.32c0,2.46.75,4.43,2.26,5.91,1.51,1.48,3.52,2.21,6.04,2.21h7.11c2.46,0,4.44-.6,5.95-1.8,1.51-1.2,2.26-2.78,2.26-4.75h10.43c0,4.68-1.72,8.43-5.17,11.26-3.45,2.83-7.97,4.25-13.56,4.25h-7.01c-3.75,0-7.06-.71-9.92-2.12ZM620.1,121.27v-1.29c0-2.71-.74-4.89-2.21-6.55-1.48-1.66-3.41-2.49-5.81-2.49h-7.47c-2.52,0-4.57.88-6.14,2.63-1.57,1.75-2.35,4.05-2.35,6.88v.83h23.99Z"/>
      <path class="cls-1" d="M640.03,102.81h9.87v6c1.35-2.03,3.14-3.66,5.35-4.89,2.21-1.23,4.43-1.85,6.64-1.85h5.72c4.74,0,8.54,1.51,11.4,4.52,2.86,3.01,4.29,6.98,4.29,11.9v30.36h-10.61v-30.08c0-2.21-.57-4.01-1.71-5.4-1.14-1.38-2.63-2.08-4.48-2.08h-5.72c-2.4,0-4.55.91-6.46,2.72-1.91,1.82-3.14,4.14-3.69,6.97v27.87h-10.61v-46.05Z"/>
    </g>
  </g>
  <g>
    <path class="cls-4" d="M757.47,127.85c-8.14.56-14.55-1.35-15.07-1.51l-2.03-.63-1.19-1.77c-.6-.89-14.54-22.13.28-42.27,14.02-19.06,43.05-20.54,44.27-20.59l4.85-.21,1.24,4.69c.32,1.19,7.54,29.33-6.48,48.39-7.5,10.19-17.58,13.33-25.87,13.9ZM748.1,115.32c5.06.96,17.71,2.09,25.51-8.51,7.58-10.3,6.66-25.32,5.5-33.09-7.76,1.21-22.37,4.8-29.95,15.1-7.79,10.59-3.36,22.03-1.06,26.5Z"/>
    <path class="cls-1" d="M757.47,127.85c-2.3.16-4.45.12-6.38-.02-1.19,3.04-2.6,5.52-3.66,7.16-6.05.55-20.91.34-29.26-13.22-8.13-13.18-5.52-31.21-3.36-40.47,5.25,1.26,13.07,3.68,20.35,7.93,1.04-2.51,2.44-5.05,4.29-7.57,1.2-1.63,2.52-3.13,3.92-4.52-15.22-9.2-31.85-11.42-32.86-11.54l-5.83-.74-1.96,5.54c-.49,1.39-12,34.64,3.02,59.02,15.88,25.77,46.03,19.76,47.31,19.49l2.52-.53,1.63-1.99c.42-.52,5.48-6.84,8.54-16.23.43-1.32.82-2.71,1.15-4.15-3.24,1.08-6.44,1.62-9.42,1.83Z"/>
    <path class="cls-5" d="M727.97,70c1.17-10.4,7.55-19.99,11.59-25.13,5.31,4.23,14.19,12.55,17.45,22.94,3.87-1.82,7.76-3.16,11.34-4.13-6.31-19.14-25.61-31.49-26.53-32.07l-4.11-2.59-3.4,3.46c-.72.73-15.05,15.54-18.04,34.17,3.09.68,7.17,1.74,11.7,3.34Z"/>
  </g>
</svg>